<svg id="그룹_3374" data-name="그룹 3374" xmlns="http://www.w3.org/2000/svg" xmlns:xlink="http://www.w3.org/1999/xlink" width="422.651" height="379.646" viewBox="0 0 422.651 379.646">
  <defs>
    <clipPath id="clip-path">
      <rect id="사각형_76" data-name="사각형 76" width="422.651" height="379.646" fill="none"/>
    </clipPath>
  </defs>
  <g id="그룹_13" data-name="그룹 13" clip-path="url(#clip-path)">
    <path id="패스_7" data-name="패스 7" d="M203.224,67.28l-6.853-59.8C195.75.626,187.028,0,187.028,0H99.5s-8.719.626-9.345,7.48l-6.849,59.8Z" transform="translate(68.686 0)" fill="#d01713"/>
    <path id="패스_8" data-name="패스 8" d="M0,94.056H421.844c-30.834-19.155-66.5-17.6-66.5-17.6A114.366,114.366,0,0,0,335.6,64.152c.214-2.916,1.436-4.236,2.558-4.824a111.314,111.314,0,0,1,9.772,5.82,6.242,6.242,0,0,0,4.147,1.434,6.163,6.163,0,0,0,2.476-11.81,203.256,203.256,0,0,0-44.5-18.666,1.805,1.805,0,0,1-1.525-1.626A8.844,8.844,0,1,0,298.1,45.1l-.053.06c3.514.578,6.94,1.328,10.248,2.211.673,1.492.876,3.68-2.1,5.433A176.6,176.6,0,0,0,287.3,48.27H134.551a176.808,176.808,0,0,0-18.9,4.53c-2.974-1.753-2.766-3.941-2.1-5.433,3.31-.883,6.738-1.633,10.254-2.211l-.053-.06a8.848,8.848,0,1,0-10.44-10.615,1.8,1.8,0,0,1-1.516,1.626A203.273,203.273,0,0,0,67.289,54.773a6.164,6.164,0,0,0,2.478,11.81,6.244,6.244,0,0,0,4.145-1.434,111.454,111.454,0,0,1,9.776-5.82c1.12.587,2.341,1.908,2.558,4.824A114.19,114.19,0,0,0,66.5,76.459S30.832,74.9,0,94.056M319.713,51.228c3.111,1.133,5.38,1.848,8.106,3.054.505,1.536.571,3.808-2.52,5.2-2.693-1.109-5.351-2.126-7.931-3.051a4.96,4.96,0,0,1,2.344-5.2M94.031,54.282c2.72-1.206,5.172-2.08,8.283-3.209a5.173,5.173,0,0,1,2.162,5.355c-2.583.925-5.238,1.941-7.933,3.051-3.085-1.388-3.02-3.66-2.512-5.2" transform="translate(0 22.744)" fill="#d01713"/>
    <path id="패스_9" data-name="패스 9" d="M87.472,93.937c0-1.578-2.005-1.587-2.005-1.587H72.825s-2,.009-2,1.587v39.83s-.274,1.766,1.828,1.766H85.643c2.1,0,1.828-1.766,1.828-1.766Z" transform="translate(58.382 76.142)" fill="#d01713"/>
    <path id="패스_10" data-name="패스 10" d="M142.931,95.45c4.95,0,8.969-2.784,8.969-6.211s-4.019-6.209-8.969-6.209-8.973,2.781-8.973,6.209,4.023,6.211,8.973,6.211" transform="translate(110.447 68.458)" fill="#d01713"/>
    <path id="패스_11" data-name="패스 11" d="M422.083,86.541a14.308,14.308,0,0,0-24.029-10.509c.14-5.765-.1-9.112-.1-9.112H24.815s-.241,3.346-.1,9.112A14.309,14.309,0,1,0,10.084,99.976L6.054,131.9h.024c-.016.241-.04.491-.04.739a8.81,8.81,0,1,0,17.621,0c0-.184-.016-.365-.027-.546l.133,0-4.047-32.044a14.35,14.35,0,0,0,6.548-4.694c4.9,36.638,24.189,99.262,97.127,130.1,0,0,2.551,1.3,1.788,5.037L114.439,288.6s-.936,10.277,7.942,10.746h178c8.88-.469,7.944-10.746,7.944-10.746l-2.851-15.421L297.584,230.5c-.759-3.737,1.792-5.037,1.792-5.037C372.313,194.62,391.605,132,396.5,95.358a14.365,14.365,0,0,0,6.55,4.694L399,132.1l.131,0c-.011.181-.027.361-.027.546a8.811,8.811,0,0,0,17.621,0c0-.248-.018-.5-.033-.739h.022l-4.034-31.925a14.317,14.317,0,0,0,9.4-13.436m-138.3,23.711h10.491s2.215.33,2.215-2.239V94.7a5.749,5.749,0,0,0-3.209-5.019c-5.9-4.324.232-4.789.232-4.789,3.5.057,4.618-1.049,4.618-1.049,6.364-6.482,12.376,1.168,12.376,1.168a9.841,9.841,0,0,0,3.211,1.865c5.492,2.689,2.748,8.179,2.748,8.179a8.251,8.251,0,0,0-1.518,3.326v56.006c-.235,4.733-3.39,5.492-3.39,5.492a18.823,18.823,0,0,1-11.036,1.81,3.587,3.587,0,0,1-4.03-3.682V128.336c0-2.689-2.281-2.4-2.281-2.4h-8.073c-1.737.181-3.251-2.855-3.251-2.855a20.944,20.944,0,0,1-2.454-9.52c-.347-3.328,3.353-3.308,3.353-3.308M252.813,83.6c15.1,0,27.335,8.469,27.335,18.922s-12.237,18.924-27.335,18.924-27.335-8.473-27.335-18.924S237.719,83.6,252.813,83.6m-25.087,41.48h49.732a3.045,3.045,0,0,1,3.125,3.423,16.012,16.012,0,0,1-1.536,9.389s-.65,2.678-4.669,2.879h-3.519a1.656,1.656,0,0,0-1.932,1.815v9.694c-.232,4.731-3.384,5.488-3.384,5.488a18.791,18.791,0,0,1-11.036,1.814,3.586,3.586,0,0,1-4.03-3.68V142.826a1.877,1.877,0,0,0-2.042-2.054H230.081c-1.739.181-3.257-2.859-3.257-2.859a20.91,20.91,0,0,1-2.452-9.52c-.352-3.33,3.353-3.311,3.353-3.311M175.958,84.888c3.5.057,4.614-1.049,4.614-1.049,6.366-6.482,12.377,1.168,12.377,1.168a9.856,9.856,0,0,0,3.217,1.865c5.486,2.689,2.744,8.179,2.744,8.179a8.258,8.258,0,0,0-1.522,3.326v83.981c-.23,4.735-3.386,5.492-3.386,5.492a18.787,18.787,0,0,1-11.036,1.81,3.584,3.584,0,0,1-4.028-3.68V94.7a5.753,5.753,0,0,0-3.211-5.019c-5.9-4.324.232-4.789.232-4.789m-26.51,92.7a3.584,3.584,0,0,1-4.03-3.68v-2.653h-16.8c-.307,4.556-3.368,5.3-3.368,5.3a18.813,18.813,0,0,1-11.035,1.815,3.59,3.59,0,0,1-4.036-3.68V115.842a4.892,4.892,0,0,0-3.191-4.616c-6.072-2.863.817-5.373.817-5.373,3.8-1.286,3.153-10.982,3.153-10.982,6.369-6.479,13.24.449,13.24.449a9.92,9.92,0,0,0,3.215,1.874,6.953,6.953,0,0,1,1.934,1.372H143.8c2.432-.193,3.248-1,3.248-1,6.364-6.486,12.379,1.166,12.379,1.166a9.9,9.9,0,0,0,3.213,1.866c5.49,2.687,2.744,8.176,2.744,8.176a8.292,8.292,0,0,0-1.52,3.328v58.189c-.232,4.729-3.383,5.484-3.383,5.484a18.792,18.792,0,0,1-11.038,1.815M211.07,256.82c-31.87,0-57.7-11.045-57.7-24.667s25.831-24.667,57.7-24.667,57.7,11.044,57.7,24.667-25.835,24.667-57.7,24.667M315.6,181.963s-.648,2.68-4.669,2.875H232.411l.093-.354a3.539,3.539,0,0,1-2.437-3.432V163.917a5.647,5.647,0,0,0-3.145-4.926c-3.66-3.552.255-4.488.255-4.488,3.386-.235,4.5-1.237,4.5-1.237,6.236-6.351,12.133,1.146,12.133,1.146a9.56,9.56,0,0,0,3.144,1.834,3.031,3.031,0,0,1,2.242,3.919,4.275,4.275,0,0,0-1.042,2.689v6.3h65.864a3.041,3.041,0,0,1,3.125,3.421,16,16,0,0,1-1.536,9.385" transform="translate(0.566 55.175)" fill="#d01713"/>
    <rect id="사각형_74" data-name="사각형 74" width="25.176" height="3.62" transform="translate(217.494 276.679)" fill="#d01713"/>
    <path id="패스_12" data-name="패스 12" d="M116.968,158.882h10.644v1.859c-.265,1.567-1.936,8.322-11.283,7.6l2.972,3.443s12.27-.994,12.5-11.038h-.011v-1.868h3.178V169.92s-.48,1.985,2.031,1.985h9.869v.062a3.449,3.449,0,0,0,3.26-3.561v-2.458l-4.18-.5v1.326c0,2.036-1.536,1.512-1.536,1.512h-4.205c-1.283,0-1.058-.93-1.058-.93v-8.471h12.273v-3.616H116.968Z" transform="translate(95.912 128.016)" fill="#d01713"/>
    <path id="패스_13" data-name="패스 13" d="M102.151,166.711h4.184V152.5H95.357V168h4.2v-2.543h2.591Zm-2.591-11.538h2.593v7.661H99.561Z" transform="translate(78.621 125.735)" fill="#d01713"/>
    <path id="패스_14" data-name="패스 14" d="M120.036,164.964h6.541v-3.622h-9.73v-2.8h8.739v-3.622h-8.739v-3.7h-4.185v3.7H105.2v3.622h7.457v2.8h-8.447v3.622h4.875a20.8,20.8,0,0,1-10.046,6.6l3.68,3.155a23.144,23.144,0,0,0,9.938-7.048v8.7h4.185v-8.223a23.766,23.766,0,0,0,8.323,5.982l3.841-2.95a21.179,21.179,0,0,1-8.975-6.214" transform="translate(81.66 124.681)" fill="#d01713"/>
    <path id="패스_15" data-name="패스 15" d="M177.162,158.828a1.386,1.386,0,0,1,.666,1.359,1.22,1.22,0,0,1-.691,1.244,2.851,2.851,0,0,1-1.164.184h-2.627v-2.983h2.695a2.611,2.611,0,0,1,1.122.2m-6.079-2.118v11.084h2.262v-4.346h2.388a2.052,2.052,0,0,1,1.4.354,2.013,2.013,0,0,1,.385,1.409l.015,1.036a5.8,5.8,0,0,0,.1.958c.031.144.078.345.153.589h2.547v-.281a.909.909,0,0,1-.42-.629,5.327,5.327,0,0,1-.06-1.031v-.743a3.629,3.629,0,0,0-.321-1.731,2.056,2.056,0,0,0-1.084-.878,2.237,2.237,0,0,0,1.312-1.078,3.311,3.311,0,0,0,.4-1.553,3.017,3.017,0,0,0-.212-1.164,3.534,3.534,0,0,0-.569-.936A2.922,2.922,0,0,0,178.31,157a5.224,5.224,0,0,0-1.792-.286Z" transform="translate(141.057 129.206)" fill="#d01713"/>
    <path id="패스_16" data-name="패스 16" d="M177.867,173.848A9.752,9.752,0,1,0,170.978,171a9.678,9.678,0,0,0,6.889,2.852m-8.019-9.741a8.008,8.008,0,1,1,2.348,5.669,7.966,7.966,0,0,1-2.348-5.669" transform="translate(138.611 127.269)" fill="#d01713"/>
    <path id="패스_17" data-name="패스 17" d="M76.406,210.532a5.45,5.45,0,0,0,.754,2.7q1.273,1.94,4.479,1.943a7.562,7.562,0,0,0,2.616-.431,3,3,0,0,0,2.284-2.959,2.59,2.59,0,0,0-.969-2.286,9.615,9.615,0,0,0-3.074-1.14l-2.565-.593a11.164,11.164,0,0,1-3.561-1.286,4.141,4.141,0,0,1-1.81-3.667,5.723,5.723,0,0,1,1.781-4.337,6.989,6.989,0,0,1,5.034-1.7,8.559,8.559,0,0,1,5.09,1.489,5.417,5.417,0,0,1,2.093,4.747H86.075a5.02,5.02,0,0,0-.814-2.4,4.681,4.681,0,0,0-3.961-1.531,4.47,4.47,0,0,0-3.242.989,3.151,3.151,0,0,0-.985,2.288,2.251,2.251,0,0,0,1.166,2.1,17.134,17.134,0,0,0,3.45,1.066l2.66.626a7.946,7.946,0,0,1,2.968,1.237,4.678,4.678,0,0,1,1.81,3.977,4.988,4.988,0,0,1-2.306,4.64,10.123,10.123,0,0,1-5.355,1.4,7.878,7.878,0,0,1-5.57-1.861,6.352,6.352,0,0,1-1.974-5.012Z" transform="translate(60.948 162.241)" fill="#d01713"/>
    <rect id="사각형_75" data-name="사각형 75" width="2.693" height="19.533" transform="translate(154.368 359.547)" fill="#d01713"/>
    <path id="패스_18" data-name="패스 18" d="M88.444,197.067h3.138l9.652,15.762V197.067h2.554V216.6H100.8l-9.8-15.784V216.6H88.444Z" transform="translate(72.921 162.48)" fill="#d01713"/>
    <path id="패스_19" data-name="패스 19" d="M113.427,198.727a6.919,6.919,0,0,1,2.248,4.434h-2.589a5.254,5.254,0,0,0-1.713-2.95,5.4,5.4,0,0,0-3.6-1.091,5.733,5.733,0,0,0-4.565,2.016q-1.749,2.028-1.744,6.2a9.117,9.117,0,0,0,1.567,5.541A5.447,5.447,0,0,0,107.713,215a4.931,4.931,0,0,0,4.37-2.242,8.626,8.626,0,0,0,1.18-3.107h2.587a8.88,8.88,0,0,1-2.251,5.176,8.02,8.02,0,0,1-6.207,2.512,8.136,8.136,0,0,1-5.649-2.058q-3.01-2.726-3.014-8.411A10.81,10.81,0,0,1,101,199.779a8.22,8.22,0,0,1,6.742-3,7.908,7.908,0,0,1,5.691,1.949" transform="translate(81.401 162.242)" fill="#d01713"/>
    <path id="패스_20" data-name="패스 20" d="M110.108,197.067h14.206v2.416H112.7V205.4H123.43v2.3H112.7v6.6h11.8v2.3H110.108Z" transform="translate(90.783 162.48)" fill="#d01713"/>
    <path id="패스_21" data-name="패스 21" d="M124.548,202.567v-1.949a10.236,10.236,0,0,0,3.806-.9c.713-.418,1.255-1.407,1.6-2.968h2.031v20.119h-2.748v-14.3Z" transform="translate(102.689 162.215)" fill="#d01713"/>
    <path id="패스_22" data-name="패스 22" d="M138.064,207.889a3.746,3.746,0,0,1-3.051-1.164,4.747,4.747,0,0,1-.96-3.133,4.9,4.9,0,0,1,1.087-3.333,3.734,3.734,0,0,1,2.95-1.252,3.933,3.933,0,0,1,2.852,1.093,4.444,4.444,0,0,1,1.126,3.324,4.175,4.175,0,0,1-1.255,3.465,4.3,4.3,0,0,1-2.749,1m-6.419,4.094a5.3,5.3,0,0,0,1.544,3.9,6.058,6.058,0,0,0,4.5,1.553q4.42,0,6.267-4.758a18.158,18.158,0,0,0,1.115-6.563,14,14,0,0,0-.929-5.463,6.1,6.1,0,0,0-6.094-3.968,5.971,5.971,0,0,0-4.946,2.082,7.517,7.517,0,0,0-1.679,4.839,6.6,6.6,0,0,0,1.693,4.685,6.016,6.016,0,0,0,4.614,1.815,6.59,6.59,0,0,0,2.68-.54,4.7,4.7,0,0,0,2.094-1.876c-.359,3.076-.969,5.129-1.821,6.128a3.948,3.948,0,0,1-3.111,1.516,3.536,3.536,0,0,1-1.746-.427,3.228,3.228,0,0,1-1.622-2.923Z" transform="translate(108.359 162.164)" fill="#d01713"/>
    <path id="패스_23" data-name="패스 23" d="M142.816,211.625a3.521,3.521,0,0,0,2.007,3,4.776,4.776,0,0,0,2.076.423,3.862,3.862,0,0,0,3.328-1.447,5.216,5.216,0,0,0,1.087-3.2,4.214,4.214,0,0,0-1.286-3.286,4.466,4.466,0,0,0-3.082-1.16,4.567,4.567,0,0,0-2.246.513,4.832,4.832,0,0,0-1.593,1.4l-2.2-.113,1.565-10.87h10.5v2.483h-8.619l-.859,5.546a6.014,6.014,0,0,1,1.339-.826,6.75,6.75,0,0,1,2.609-.473,6.671,6.671,0,0,1,4.718,1.8,5.979,5.979,0,0,1,1.939,4.569,7.9,7.9,0,0,1-1.772,5.083c-1.19,1.465-3.065,2.195-5.652,2.195a7.19,7.19,0,0,1-4.364-1.385,5.47,5.47,0,0,1-2.124-4.258Z" transform="translate(115.583 162.332)" fill="#d01713"/>
    <path id="패스_24" data-name="패스 24" d="M156.24,215.179a3.891,3.891,0,0,1-3.114-1.3,4.7,4.7,0,0,1-1.124-3.2,4.088,4.088,0,0,1,1.241-3.253,4.206,4.206,0,0,1,2.872-1.082,3.541,3.541,0,0,1,3.237,1.4,5.414,5.414,0,0,1,.894,2.936,5.234,5.234,0,0,1-1,3.164,3.514,3.514,0,0,1-3.007,1.337m.2-18.495c-3.122,0-5.278,1.669-6.446,5.006a19.141,19.141,0,0,0-.923,6.373q0,5.088,2.053,7.227a6.552,6.552,0,0,0,4.893,2.146,6.308,6.308,0,0,0,5.1-2.113,7.334,7.334,0,0,0,1.8-4.866,6.006,6.006,0,0,0-1.892-4.824,6.6,6.6,0,0,0-4.426-1.624,6.27,6.27,0,0,0-2.711.578,5.375,5.375,0,0,0-2.2,1.925,11.253,11.253,0,0,1,1.4-5.643,3.8,3.8,0,0,1,3.361-1.969,3.171,3.171,0,0,1,2.77,1.275,4.531,4.531,0,0,1,.726,1.881h2.554a5.929,5.929,0,0,0-1.332-3.62c-.89-1.175-2.467-1.753-4.722-1.753" transform="translate(122.907 162.164)" fill="#d01713"/>
  </g>
  <g id="그룹_15" data-name="그룹 15">
    <path id="패스_25" data-name="패스 25" d="M203.224,67.28l-6.853-59.8C195.75.626,187.028,0,187.028,0H99.5s-8.719.626-9.345,7.48l-6.849,59.8Z" transform="translate(68.686 0)" fill="#d01713"/>
    <path id="패스_26" data-name="패스 26" d="M0,94.056H421.844c-30.834-19.155-66.5-17.6-66.5-17.6A114.366,114.366,0,0,0,335.6,64.152c.214-2.916,1.436-4.236,2.558-4.824a111.314,111.314,0,0,1,9.772,5.82,6.242,6.242,0,0,0,4.147,1.434,6.163,6.163,0,0,0,2.476-11.81,203.256,203.256,0,0,0-44.5-18.666,1.805,1.805,0,0,1-1.525-1.626A8.844,8.844,0,1,0,298.1,45.1l-.053.06c3.514.578,6.94,1.328,10.248,2.211.673,1.492.876,3.68-2.1,5.433A176.6,176.6,0,0,0,287.3,48.27H134.551a176.808,176.808,0,0,0-18.9,4.53c-2.974-1.753-2.766-3.941-2.1-5.433,3.31-.883,6.738-1.633,10.254-2.211l-.053-.06a8.848,8.848,0,1,0-10.44-10.615,1.8,1.8,0,0,1-1.516,1.626A203.273,203.273,0,0,0,67.289,54.773a6.164,6.164,0,0,0,2.478,11.81,6.244,6.244,0,0,0,4.145-1.434,111.454,111.454,0,0,1,9.776-5.82c1.12.587,2.341,1.908,2.558,4.824A114.19,114.19,0,0,0,66.5,76.459S30.832,74.9,0,94.056M319.713,51.228c3.111,1.133,5.38,1.848,8.106,3.054.505,1.536.571,3.808-2.52,5.2-2.693-1.109-5.351-2.126-7.931-3.051a4.96,4.96,0,0,1,2.344-5.2M94.031,54.282c2.72-1.206,5.172-2.08,8.283-3.209a5.173,5.173,0,0,1,2.162,5.355c-2.583.925-5.238,1.941-7.933,3.051-3.085-1.388-3.02-3.66-2.512-5.2" transform="translate(0 22.744)" fill="#d01713"/>
    <path id="패스_27" data-name="패스 27" d="M87.472,93.937c0-1.578-2.005-1.587-2.005-1.587H72.825s-2,.009-2,1.587v39.83s-.274,1.766,1.828,1.766H85.643c2.1,0,1.828-1.766,1.828-1.766Z" transform="translate(58.382 76.142)" fill="#d01713"/>
    <path id="패스_28" data-name="패스 28" d="M142.931,95.45c4.95,0,8.969-2.784,8.969-6.211s-4.019-6.209-8.969-6.209-8.973,2.781-8.973,6.209,4.023,6.211,8.973,6.211" transform="translate(110.447 68.458)" fill="#d01713"/>
    <rect id="사각형_77" data-name="사각형 77" width="25.176" height="3.62" transform="translate(217.494 276.679)" fill="#d01713"/>
    <path id="패스_30" data-name="패스 30" d="M116.968,158.882h10.644v1.859c-.265,1.567-1.936,8.322-11.283,7.6l2.972,3.443s12.27-.994,12.5-11.038h-.011v-1.868h3.178V169.92s-.48,1.985,2.031,1.985h9.869v.062a3.449,3.449,0,0,0,3.26-3.561v-2.458l-4.18-.5v1.326c0,2.036-1.536,1.512-1.536,1.512h-4.205c-1.283,0-1.058-.93-1.058-.93v-8.471h12.273v-3.616H116.968Z" transform="translate(95.912 128.016)" fill="#d01713"/>
    <path id="패스_31" data-name="패스 31" d="M102.151,166.711h4.184V152.5H95.357V168h4.2v-2.543h2.591Zm-2.591-11.538h2.593v7.661H99.561Z" transform="translate(78.621 125.735)" fill="#d01713"/>
    <path id="패스_32" data-name="패스 32" d="M120.036,164.964h6.541v-3.622h-9.73v-2.8h8.739v-3.622h-8.739v-3.7h-4.185v3.7H105.2v3.622h7.457v2.8h-8.447v3.622h4.875a20.8,20.8,0,0,1-10.046,6.6l3.68,3.155a23.144,23.144,0,0,0,9.938-7.048v8.7h4.185v-8.223a23.766,23.766,0,0,0,8.323,5.982l3.841-2.95a21.179,21.179,0,0,1-8.975-6.214" transform="translate(81.66 124.681)" fill="#d01713"/>
    <path id="패스_33" data-name="패스 33" d="M177.162,158.828a1.386,1.386,0,0,1,.666,1.359,1.22,1.22,0,0,1-.691,1.244,2.851,2.851,0,0,1-1.164.184h-2.627v-2.983h2.695a2.611,2.611,0,0,1,1.122.2m-6.079-2.118v11.084h2.262v-4.346h2.388a2.052,2.052,0,0,1,1.4.354,2.013,2.013,0,0,1,.385,1.409l.015,1.036a5.8,5.8,0,0,0,.1.958c.031.144.078.345.153.589h2.547v-.281a.909.909,0,0,1-.42-.629,5.327,5.327,0,0,1-.06-1.031v-.743a3.629,3.629,0,0,0-.321-1.731,2.056,2.056,0,0,0-1.084-.878,2.237,2.237,0,0,0,1.312-1.078,3.311,3.311,0,0,0,.4-1.553,3.017,3.017,0,0,0-.212-1.164,3.534,3.534,0,0,0-.569-.936A2.922,2.922,0,0,0,178.31,157a5.224,5.224,0,0,0-1.792-.286Z" transform="translate(141.057 129.206)" fill="#d01713"/>
    <path id="패스_34" data-name="패스 34" d="M177.867,173.848A9.752,9.752,0,1,0,170.978,171a9.678,9.678,0,0,0,6.889,2.852m-8.019-9.741a8.008,8.008,0,1,1,2.348,5.669,7.966,7.966,0,0,1-2.348-5.669" transform="translate(138.611 127.269)" fill="#d01713"/>
    <path id="패스_35" data-name="패스 35" d="M76.406,210.532a5.45,5.45,0,0,0,.754,2.7q1.273,1.94,4.479,1.943a7.562,7.562,0,0,0,2.616-.431,3,3,0,0,0,2.284-2.959,2.59,2.59,0,0,0-.969-2.286,9.615,9.615,0,0,0-3.074-1.14l-2.565-.593a11.164,11.164,0,0,1-3.561-1.286,4.141,4.141,0,0,1-1.81-3.667,5.723,5.723,0,0,1,1.781-4.337,6.989,6.989,0,0,1,5.034-1.7,8.559,8.559,0,0,1,5.09,1.489,5.417,5.417,0,0,1,2.093,4.747H86.075a5.02,5.02,0,0,0-.814-2.4,4.681,4.681,0,0,0-3.961-1.531,4.47,4.47,0,0,0-3.242.989,3.151,3.151,0,0,0-.985,2.288,2.251,2.251,0,0,0,1.166,2.1,17.134,17.134,0,0,0,3.45,1.066l2.66.626a7.946,7.946,0,0,1,2.968,1.237,4.678,4.678,0,0,1,1.81,3.977,4.988,4.988,0,0,1-2.306,4.64,10.123,10.123,0,0,1-5.355,1.4,7.878,7.878,0,0,1-5.57-1.861,6.352,6.352,0,0,1-1.974-5.012Z" transform="translate(60.948 162.241)" fill="#d01713"/>
    <rect id="사각형_78" data-name="사각형 78" width="2.693" height="19.533" transform="translate(154.368 359.547)" fill="#d01713"/>
    <path id="패스_36" data-name="패스 36" d="M88.444,197.067h3.138l9.652,15.762V197.067h2.554V216.6H100.8l-9.8-15.784V216.6H88.444Z" transform="translate(72.921 162.48)" fill="#d01713"/>
    <path id="패스_37" data-name="패스 37" d="M113.427,198.727a6.919,6.919,0,0,1,2.248,4.434h-2.589a5.254,5.254,0,0,0-1.713-2.95,5.4,5.4,0,0,0-3.6-1.091,5.733,5.733,0,0,0-4.565,2.016q-1.749,2.028-1.744,6.2a9.117,9.117,0,0,0,1.567,5.541A5.447,5.447,0,0,0,107.713,215a4.931,4.931,0,0,0,4.37-2.242,8.626,8.626,0,0,0,1.18-3.107h2.587a8.88,8.88,0,0,1-2.251,5.176,8.02,8.02,0,0,1-6.207,2.512,8.136,8.136,0,0,1-5.649-2.058q-3.01-2.726-3.014-8.411A10.81,10.81,0,0,1,101,199.779a8.22,8.22,0,0,1,6.742-3,7.908,7.908,0,0,1,5.691,1.949" transform="translate(81.401 162.242)" fill="#d01713"/>
    <path id="패스_38" data-name="패스 38" d="M110.108,197.067h14.206v2.416H112.7V205.4H123.43v2.3H112.7v6.6h11.8v2.3H110.108Z" transform="translate(90.783 162.48)" fill="#d01713"/>
    <path id="패스_39" data-name="패스 39" d="M124.548,202.567v-1.949a10.236,10.236,0,0,0,3.806-.9c.713-.418,1.255-1.407,1.6-2.968h2.031v20.119h-2.748v-14.3Z" transform="translate(102.689 162.215)" fill="#d01713"/>
    <path id="패스_41" data-name="패스 41" d="M142.816,211.625a3.521,3.521,0,0,0,2.007,3,4.776,4.776,0,0,0,2.076.423,3.862,3.862,0,0,0,3.328-1.447,5.216,5.216,0,0,0,1.087-3.2,4.214,4.214,0,0,0-1.286-3.286,4.466,4.466,0,0,0-3.082-1.16,4.567,4.567,0,0,0-2.246.513,4.832,4.832,0,0,0-1.593,1.4l-2.2-.113,1.565-10.87h10.5v2.483h-8.619l-.859,5.546a6.014,6.014,0,0,1,1.339-.826,6.75,6.75,0,0,1,2.609-.473,6.671,6.671,0,0,1,4.718,1.8,5.979,5.979,0,0,1,1.939,4.569,7.9,7.9,0,0,1-1.772,5.083c-1.19,1.465-3.065,2.195-5.652,2.195a7.19,7.19,0,0,1-4.364-1.385,5.47,5.47,0,0,1-2.124-4.258Z" transform="translate(115.583 162.332)" fill="#d01713"/>
    <path id="패스_42" data-name="패스 42" d="M156.24,215.179a3.891,3.891,0,0,1-3.114-1.3,4.7,4.7,0,0,1-1.124-3.2,4.088,4.088,0,0,1,1.241-3.253,4.206,4.206,0,0,1,2.872-1.082,3.541,3.541,0,0,1,3.237,1.4,5.414,5.414,0,0,1,.894,2.936,5.234,5.234,0,0,1-1,3.164,3.514,3.514,0,0,1-3.007,1.337m.2-18.495c-3.122,0-5.278,1.669-6.446,5.006a19.141,19.141,0,0,0-.923,6.373q0,5.088,2.053,7.227a6.552,6.552,0,0,0,4.893,2.146,6.308,6.308,0,0,0,5.1-2.113,7.334,7.334,0,0,0,1.8-4.866,6.006,6.006,0,0,0-1.892-4.824,6.6,6.6,0,0,0-4.426-1.624,6.27,6.27,0,0,0-2.711.578,5.375,5.375,0,0,0-2.2,1.925,11.253,11.253,0,0,1,1.4-5.643,3.8,3.8,0,0,1,3.361-1.969,3.171,3.171,0,0,1,2.77,1.275,4.531,4.531,0,0,1,.726,1.881h2.554a5.929,5.929,0,0,0-1.332-3.62c-.89-1.175-2.467-1.753-4.722-1.753" transform="translate(122.907 162.164)" fill="#d01713"/>
  </g>
</svg>
