<svg xmlns="http://www.w3.org/2000/svg" xmlns:xlink="http://www.w3.org/1999/xlink" width="80.889" height="41.284" viewBox="0 0 80.889 41.284">
  <defs>
    <clipPath id="clip-path">
      <rect id="사각형_2172" data-name="사각형 2172" width="80.889" height="41.284" fill="#db2f1c"/>
    </clipPath>
  </defs>
  <g id="그룹_3229" data-name="그룹 3229" transform="translate(0 0)">
    <g id="그룹_3204" data-name="그룹 3204" transform="translate(0 0)" clip-path="url(#clip-path)">
      <path id="패스_14494" data-name="패스 14494" d="M101.135,46.393a1.155,1.155,0,0,0-1.188-1.3H74.913V42.7a1.632,1.632,0,0,1,.4-1.023,1.152,1.152,0,0,0-.852-1.489,3.649,3.649,0,0,1-1.194-.7s-2.242-2.849-4.612-.436a3.017,3.017,0,0,1-1.709.47s-1.488.355-.1,1.706a2.144,2.144,0,0,1,1.2,1.872v6.512a1.345,1.345,0,0,0,.926,1.3l-.035.135H98.777c1.528-.075,1.774-1.093,1.774-1.093a6.082,6.082,0,0,0,.584-3.567" transform="translate(-20.307 -11.673)" fill="#db2f1c"/>
      <path id="패스_14495" data-name="패스 14495" d="M22.571,35.677V13.56a3.14,3.14,0,0,1,.578-1.265,2.259,2.259,0,0,0-1.044-3.107,3.757,3.757,0,0,1-1.221-.709S18.6,5.57,16.18,8.035a2.056,2.056,0,0,1-1.235.381H9.45a2.647,2.647,0,0,0-.736-.521,3.778,3.778,0,0,1-1.222-.712S4.882,4.549,2.461,7.011c0,0,.245,3.685-1.2,4.174,0,0-2.619.954-.311,2.043a1.858,1.858,0,0,1,1.214,1.754V37.35a1.364,1.364,0,0,0,1.533,1.4,7.15,7.15,0,0,0,4.194-.69s1.164-.283,1.28-2.015h6.386v1.008a1.363,1.363,0,0,0,1.532,1.4,7.149,7.149,0,0,0,4.2-.691s1.2-.287,1.286-2.085m-7.758-5.241H9.874c-.8,0-.694-.671-.694-.671V14.625c0-.6.761-.6.761-.6h4.805s.762,0,.762.6V29.765s.1.671-.695.671" transform="translate(0 -1.827)" fill="#db2f1c"/>
      <path id="패스_14496" data-name="패스 14496" d="M38.615,3.21a2.188,2.188,0,0,1,1.221,1.908v34.7a1.362,1.362,0,0,0,1.531,1.4,7.141,7.141,0,0,0,4.195-.688s1.2-.288,1.287-2.087V6.517a3.139,3.139,0,0,1,.578-1.264,2.262,2.262,0,0,0-1.043-3.109,3.731,3.731,0,0,1-1.223-.709s-2.285-2.908-4.7-.444a2.522,2.522,0,0,1-1.754.4s-2.331.177-.088,1.82" transform="translate(-11.538 0)" fill="#db2f1c"/>
      <path id="패스_14497" data-name="패스 14497" d="M76.7,15.683c5.739,0,10.39-3.22,10.39-7.193S82.443,1.3,76.7,1.3s-10.39,3.22-10.39,7.192,4.653,7.193,10.39,7.193m0-9.552c1.881,0,3.409,1.056,3.409,2.359s-1.528,2.361-3.409,2.361S73.294,9.792,73.294,8.49,74.823,6.131,76.7,6.131" transform="translate(-20.327 -0.398)" fill="#db2f1c"/>
      <path id="패스_14498" data-name="패스 14498" d="M98.6,16.992h3.069s.867-.11.867.913V29.18a1.363,1.363,0,0,0,1.532,1.4,7.154,7.154,0,0,0,4.195-.688s1.2-.289,1.288-2.087V6.517a3.132,3.132,0,0,1,.577-1.264,2.261,2.261,0,0,0-1.044-3.109,3.74,3.74,0,0,1-1.221-.709s-2.284-2.908-4.7-.444a2.527,2.527,0,0,1-1.755.4s-2.331.177-.088,1.82a2.187,2.187,0,0,1,1.221,1.908V10.18c0,.976-.843.851-.843.851H97.707s-1.406-.008-1.275,1.257a7.956,7.956,0,0,0,.933,3.619s.576,1.154,1.235,1.085" transform="translate(-29.556 0)" fill="#db2f1c"/>
      <path id="패스_14499" data-name="패스 14499" d="M67.875,30h6.976a.713.713,0,0,1,.776.781v4.97a1.364,1.364,0,0,0,1.532,1.4,7.144,7.144,0,0,0,4.194-.69s1.2-.288,1.287-2.085V30.688a.629.629,0,0,1,.734-.69h1.338c1.528-.076,1.775-1.094,1.775-1.094a6.086,6.086,0,0,0,.584-3.569,1.158,1.158,0,0,0-1.188-1.3H66.98s-1.408-.006-1.275,1.259a7.951,7.951,0,0,0,.932,3.619s.577,1.155,1.238,1.086" transform="translate(-20.137 -7.367)" fill="#db2f1c"/>
    </g>
  </g>
</svg>
