<?xml version='1.0' encoding='utf-8'?>
<svg xmlns="http://www.w3.org/2000/svg" width="437.84px" height="231.48px" enable-background="new -76.571 23.087 437.839 231.482" version="1.1" viewBox="-76.571 23.087 437.839 231.482">
		<path d="m316.9 104.84c-7.137 5.155-54.629 36.779-75.181 45.974-20.554 9.193-93.03 14.063-101.68 13.521-8.655-0.539-52.465-1.623-59.496-0.541s-12.981 9.194-16.767 17.309c-3.786 8.113-8.654 5.947-8.114 1.622 0.541-4.326-1.082-20.554-2.163-22.177-1.082-1.62-5.949-1.623-8.654 1.082s-4.327-9.192-7.031-11.357c-2.705-2.161-8.113-5.409-7.031-2.704 1.082 2.704 0.541 11.356 0 23.259-0.541 11.899-12.98 12.979-11.899 7.571 1.081-5.407-4.868-31.371-7.031-36.238-2.164-4.868-56.792-47.598-70.313-56.792-13.522-9.195-22.717-16.767-15.686-14.604s51.383 22.175 69.772 31.37 19.471 20.012 24.88 16.227c5.409-3.786 0-9.736 3.245-10.818 6.006-2.001 9.735 5.95 14.063 7.032 4.327 1.082 34.615-9.195 38.401-12.44 3.789-3.246 14.064-14.604 15.687-21.636 1.623-7.031-5.408-22.716-6.49-29.748-1.081-7.031-1.623-27.044 1.082-27.585 10.816-2.164 44.891 40.566 52.464 45.434s23.258 1.082 61.118-7.032c37.86-8.112 79.508-7.031 112.5-9.736 32.993-2.705 49.222 0 48.682 7.031s-23.801 25.421-35.696 31.911c-2e-3 2e-3 1.079 7.034-8.658 14.065z" fill="#010101"/>
			<linearGradient id="p" x1="444.61" x2="434.18" y1="666.8" y2="637.83" gradientTransform="translate(-311.86 -558.92)" gradientUnits="userSpaceOnUse">
			<stop stop-color="#6688BF" stop-opacity="0" offset="0"/>
			<stop stop-color="#010101" offset="1"/>
		</linearGradient>
		<path d="m13.212 133.3c13.906 8.112 30.13 5.794 44.037 2.318 66.055-17.383 134.43-31.29 185.42-77.645 0.938-0.937 1.414-1.721 1.537-2.379-14.802 1.14-29.74 2.892-44.133 5.976-37.857 8.113-53.545 11.899-61.118 7.032-1.257-0.809-3.257-2.676-5.747-5.194 1.908 2.847 3.595 5.811 2.844 7.313-3.478 6.954-15.066 4.636-23.178 8.112-3.477 2.318-5.794 8.112-9.271 10.43-8.847 4.083-17.694 9.362-26.775 12.323-0.215 0.196-0.429 0.39-0.613 0.548-3.786 3.245-34.075 13.522-38.401 12.44-4.327-1.082-8.057-9.033-14.063-7.032-3.245 1.082 2.164 7.032-3.245 10.818-2.633 1.842-4.245 0.221-7.321-2.983-0.07 6.47-6.604 14.134 0.029 17.923z" fill="url(#p)"/>
			<linearGradient id="q" x1="385.03" x2="359.77" y1="-148.63" y2="-108.11" gradientTransform="matrix(1 0 0 -1 -155.93 3.7705)" gradientUnits="userSpaceOnUse">
			<stop stop-color="#E0DFDD" offset="0"/>
			<stop stop-color="#A6B5CF" offset="1"/>
		</linearGradient>
		<path d="m241.72 150.81c20.552-9.195 68.044-40.819 75.181-45.974 9.736-7.031 8.655-14.063 8.655-14.063 11.896-6.49 35.156-24.88 35.696-31.911 0.111-1.479-0.524-2.765-1.896-3.851-0.538 3.189-3.8 6.454-8.843 8.471-9.521 3.808-114.88 37.447-131.38 43.793s-47.603 13.962-59.025 24.752-89.49 22.212-93.298 23.484c-3.809 1.271-2.538 3.173 0 6.346 1.887 2.359-5.34 16.986-7.873 24.604 1.485-0.396 3.253-1.974 4.834-5.362 3.785-8.112 9.735-16.226 16.767-17.308s50.841 0 59.496 0.541 81.131-4.328 101.69-13.522z" fill="url(#q)"/>
		<path d="m208.19 147.03c-11.032 5.514-30.288 26.503-39.482 44.352-9.192 17.852-42.188 54.088-51.382 62.201-9.196 8.111 9.734-35.697 19.471-55.17 9.734-19.471 16.226-31.369 11.358-36.779-4.869-5.406 15.686-8.109 24.881-15.145 9.193-7.03 37.318-0.54 35.154 0.541z" fill="#010101"/>
			<path d="m284.67 80.586c-0.42 1.322-0.371 3.189 0.361 4.495 1.4 2.505 4.567 3.4 7.073 2 2.09-1.169 3.063-3.852 2.511-6.07-3.458 0.397-6.158 0.126-9.945-0.425z" fill="#010101"/>
				<radialGradient id="r" cx="868.25" cy="839.34" r="8.7447" gradientTransform="matrix(.801 0 0 .801 -407.73 -586.5)" gradientUnits="userSpaceOnUse">
				<stop stop-color="#DAEFEB" offset="0"/>
				<stop stop-color="#fff" offset="1"/>
			</radialGradient>
			<path d="m285.55 81.288c-0.334 1.069-0.254 2.264 0.338 3.318 1.141 2.036 3.713 2.764 5.748 1.625 1.68-0.941 2.449-2.858 2.029-4.646-2.704 0.699-5.41 0.586-8.115-0.297z" fill="url(#r)"/>
			<path d="m287.29 81.749c-0.28 0.766-0.25 1.64 0.181 2.408 0.784 1.396 2.552 1.897 3.95 1.114 1.254-0.701 1.772-2.188 1.311-3.496-1.817 0.344-3.629 0.337-5.442-0.026z" fill="#010101"/>
				<radialGradient id="s" cx="-954.78" cy="-288.52" r="3.7552" gradientTransform="matrix(-.4357 -.275 .2749 -.4358 -45.499 -304.72)" gradientUnits="userSpaceOnUse">
				<stop stop-color="#010101" offset="0"/>
				<stop stop-color="#fff" offset="1"/>
			</radialGradient>
			<path d="m289.8 83.718c0.361-0.571 1.115-0.742 1.687-0.382s0.742 1.116 0.384 1.688c-0.358 0.569-1.115 0.742-1.688 0.38-0.571-0.36-0.739-1.116-0.383-1.686z" enable-background="new    " fill="url(#s)" opacity=".58"/>
			<path d="m290.43 83.562c0.184 0.316 0.072 0.722-0.243 0.904-0.32 0.181-0.724 0.07-0.903-0.247-0.183-0.318-0.07-0.722 0.246-0.903 0.317-0.181 0.721-0.071 0.9 0.246z" fill="#fff"/>
		<g enable-background="new    " opacity=".71">
				<radialGradient id="t" cx="560.83" cy="841.98" r="16.084" gradientTransform="matrix(1.1575 -.2289 .2289 1.1575 -569.68 -747.45)" gradientUnits="userSpaceOnUse">
				<stop stop-color="#F9C7D6" offset="0"/>
				<stop stop-color="#fff" stop-opacity="0" offset="1"/>
			</radialGradient>
			<path d="m290.83 95.087c2.03 10.282-4.656 20.265-14.937 22.297-10.278 2.034-20.265-4.654-22.299-14.934-2.032-10.281 4.655-20.266 14.937-22.297 10.281-2.033 20.263 4.654 22.299 14.934z" enable-background="new    " fill="url(#t)" opacity=".71"/>
				<radialGradient id="u" cx="565.38" cy="839.2" r="8.1592" gradientTransform="matrix(1.1575 -.2289 .2289 1.1575 -569.68 -747.45)" gradientUnits="userSpaceOnUse">
				<stop stop-color="#F9C7D6" offset="0"/>
				<stop stop-color="#fff" stop-opacity="0" offset="1"/>
			</radialGradient>
			<path d="m286.28 92.64c1.03 5.218-2.359 10.281-7.58 11.313-5.213 1.031-10.279-2.362-11.309-7.578-1.034-5.214 2.359-10.282 7.576-11.312 5.217-1.033 10.281 2.36 11.313 7.577z" enable-background="new    " fill="url(#u)" opacity=".71"/>
		</g>
		<path d="m325.37 93.437c0.341-1.642 0.188-2.66 0.188-2.66s-35.279 19.968-43.752 19.968c0 0 4.067 2.371 43.564-17.308z" fill="#010101"/>
		<path d="m172.97 110.52c2.61 3.446 13.396 23.348 20.356 25.646l-20.356-25.646z" fill="#010101"/>
		<path d="m181.98 108.49c2.609 3.446 13.396 23.349 20.357 25.646l-20.357-25.646z" fill="#010101"/>
		<path d="m190.54 106.69c2.609 3.445 13.396 23.348 20.358 25.646l-20.358-25.646z" fill="#010101"/>
		<path d="m199.99 105.79c2.611 3.446 13.396 23.348 20.356 25.645l-20.356-25.645z" fill="#010101"/>
			<linearGradient id="v" x1="490.55" x2="495.72" y1="686.39" y2="681.58" gradientTransform="translate(-311.86 -558.92)" gradientUnits="userSpaceOnUse">
			<stop stop-color="#6688BF" offset="0"/>
			<stop stop-color="#fff" offset="1"/>
		</linearGradient>
		<path d="m173.75 109.74c2.61 3.446 12.619 24.124 19.582 26.422l-19.582-26.422z" fill="url(#v)"/>
			<linearGradient id="w" x1="499.55" x2="504.73" y1="684.36" y2="679.55" gradientTransform="translate(-311.86 -558.92)" gradientUnits="userSpaceOnUse">
			<stop stop-color="#6688BF" offset="0"/>
			<stop stop-color="#fff" offset="1"/>
		</linearGradient>
		<path d="m182.75 107.72c2.609 3.446 12.619 24.125 19.582 26.423l-19.582-26.423z" fill="url(#w)"/>
			<linearGradient id="x" x1="508.11" x2="513.28" y1="682.56" y2="677.75" gradientTransform="translate(-311.86 -558.92)" gradientUnits="userSpaceOnUse">
			<stop stop-color="#6688BF" offset="0"/>
			<stop stop-color="#fff" offset="1"/>
		</linearGradient>
		<path d="m191.31 105.92c2.608 3.445 12.618 24.124 19.582 26.422l-19.582-26.422z" fill="url(#x)"/>
			<linearGradient id="m" x1="517.57" x2="522.74" y1="681.66" y2="676.85" gradientTransform="translate(-311.86 -558.92)" gradientUnits="userSpaceOnUse">
			<stop stop-color="#6688BF" offset="0"/>
			<stop stop-color="#fff" offset="1"/>
		</linearGradient>
		<path d="m200.77 105.02c2.61 3.446 12.618 24.124 19.58 26.421l-19.58-26.421z" fill="url(#m)"/>
			<linearGradient id="n" x1="561.14" x2="565.22" y1="605.98" y2="631.83" gradientTransform="translate(-311.86 -558.92)" gradientUnits="userSpaceOnUse">
			<stop stop-color="#010101" offset="0"/>
			<stop stop-color="#4C5579" stop-opacity="0" offset="1"/>
		</linearGradient>
		<path d="m169.14 68.935c28.923-6.906 57.782-10.223 92.896-12.445 35.113-2.222 58.227-4 68.003-4.444 9.78-0.445 32.893 1.333 18.668 5.777-14.223 4.445-102.67 16.891-117.34 21.779-14.671 4.89-121.79 3.556-62.228-10.667z" fill="url(#n)"/>
			<linearGradient id="o" x1="631.12" x2="625.85" y1="598.88" y2="623.13" gradientTransform="translate(-311.86 -558.92)" gradientUnits="userSpaceOnUse">
			<stop stop-color="#EB66A6" stop-opacity="0" offset="0"/>
			<stop stop-color="#010101" offset="1"/>
		</linearGradient>
		<path d="m281.02 55.74c25.52-2.511 71.205-5.848 73.958-0.688 2.752 5.16-19.266 12.384-32.336 15.824-13.071 3.438-62.605-13.072-41.622-15.136z" fill="url(#o)"/>
</svg>